<?xml version="1.0" encoding="utf-8"?>
<!-- Generator: Adobe Illustrator 16.0.0, SVG Export Plug-In . SVG Version: 6.00 Build 0)  -->
<!DOCTYPE svg PUBLIC "-//W3C//DTD SVG 1.1//EN" "http://www.w3.org/Graphics/SVG/1.1/DTD/svg11.dtd">
<svg fill="#FFFFFF" version="1.1" xmlns="http://www.w3.org/2000/svg" xmlns:xlink="http://www.w3.org/1999/xlink" x="0px" y="0px"
	 width="853.42px" height="745.463px" viewBox="0 0 853.42 745.463" enable-background="new 0 0 853.42 745.463"
	 xml:space="preserve">
<g id="title">
	<path d="M88.226,660.822c0-4.179,0.722-8.131,2.166-11.855c1.443-3.724,3.534-6.992,6.27-9.805
		c2.736-2.811,6.042-5.053,9.918-6.726c3.876-1.671,8.246-2.508,13.11-2.508c6.536,0,12.102,1.407,16.701,4.218
		c4.598,2.813,8.037,6.498,10.317,11.058l-14.934,4.561c-1.293-2.204-3.003-3.894-5.13-5.073c-2.128-1.178-4.485-1.767-7.068-1.767
		c-2.205,0-4.257,0.438-6.156,1.311c-1.901,0.875-3.554,2.091-4.959,3.648c-1.407,1.559-2.508,3.439-3.306,5.643
		c-0.798,2.205-1.197,4.637-1.197,7.296c0,2.661,0.417,5.093,1.254,7.296c0.835,2.205,1.956,4.104,3.363,5.7
		c1.405,1.596,3.059,2.832,4.959,3.705c1.899,0.875,3.914,1.311,6.042,1.311c2.736,0,5.262-0.684,7.581-2.052
		c2.317-1.368,3.933-3.039,4.845-5.016l14.934,4.56c-2.052,4.561-5.435,8.285-10.146,11.172c-4.713,2.89-10.374,4.332-16.986,4.332
		c-4.865,0-9.234-0.837-13.11-2.508s-7.182-3.933-9.918-6.783c-2.736-2.85-4.845-6.155-6.327-9.918
		C88.967,668.859,88.226,664.927,88.226,660.822z"/>
	<path d="M156.169,607.471h15.276v64.067c0,2.205,0.531,3.916,1.596,5.13c1.063,1.217,2.583,1.824,4.56,1.824
		c0.912,0,1.918-0.151,3.021-0.456c1.101-0.303,2.146-0.684,3.135-1.14l2.052,11.628c-2.052,0.988-4.446,1.749-7.182,2.28
		c-2.736,0.53-5.207,0.798-7.41,0.798c-4.788,0-8.493-1.271-11.115-3.819c-2.622-2.545-3.933-6.174-3.933-10.887V607.471z"/>
	<path d="M220.008,691.83c-4.865,0-9.234-0.837-13.11-2.508s-7.165-3.933-9.861-6.783c-2.698-2.85-4.77-6.136-6.213-9.86
		c-1.444-3.723-2.166-7.639-2.166-11.742c0-4.179,0.722-8.132,2.166-11.856c1.443-3.723,3.515-7.011,6.213-9.86
		c2.697-2.851,5.985-5.11,9.861-6.783c3.876-1.671,8.245-2.508,13.11-2.508c4.863,0,9.214,0.837,13.053,2.508
		c3.836,1.673,7.105,3.933,9.804,6.783c2.697,2.85,4.769,6.138,6.213,9.86c1.443,3.725,2.166,7.678,2.166,11.856
		c0,4.104-0.723,8.02-2.166,11.742c-1.444,3.725-3.497,7.011-6.156,9.86c-2.661,2.851-5.928,5.112-9.804,6.783
		S224.871,691.83,220.008,691.83z M204.39,660.937c0,2.661,0.399,5.073,1.197,7.239s1.899,4.047,3.306,5.643
		c1.406,1.596,3.059,2.832,4.959,3.705c1.898,0.875,3.951,1.311,6.156,1.311c2.204,0,4.255-0.436,6.156-1.311
		c1.898-0.873,3.552-2.109,4.959-3.705c1.405-1.596,2.508-3.495,3.306-5.7c0.798-2.203,1.197-4.635,1.197-7.296
		c0-2.583-0.399-4.977-1.197-7.182c-0.798-2.203-1.9-4.104-3.306-5.7c-1.407-1.596-3.061-2.83-4.959-3.705
		c-1.901-0.873-3.953-1.311-6.156-1.311c-2.205,0-4.257,0.456-6.156,1.367c-1.901,0.912-3.554,2.166-4.959,3.763
		c-1.407,1.596-2.508,3.496-3.306,5.7C204.789,655.96,204.39,658.354,204.39,660.937z"/>
	<path d="M279.742,691.83c-6.156,0-10.83-1.975-14.022-5.928c-3.192-3.951-4.788-9.804-4.788-17.556v-37.393h15.276v34.086
		c0,9.197,3.306,13.794,9.918,13.794c2.964,0,5.832-0.892,8.607-2.679c2.773-1.784,5.034-4.503,6.783-8.15v-37.051h15.276v42.181
		c0,1.596,0.285,2.735,0.855,3.42c0.57,0.684,1.5,1.064,2.793,1.14v12.996c-1.521,0.303-2.793,0.493-3.819,0.57
		c-1.026,0.074-1.958,0.113-2.793,0.113c-2.736,0-4.959-0.627-6.669-1.881s-2.718-2.981-3.021-5.187l-0.342-4.788
		c-2.661,4.104-6.081,7.182-10.26,9.233C289.356,690.805,284.758,691.83,279.742,691.83z"/>
	<path d="M356.692,691.83c-4.104,0-7.905-0.798-11.4-2.394c-3.497-1.596-6.498-3.8-9.006-6.612c-2.508-2.811-4.466-6.099-5.871-9.86
		c-1.407-3.763-2.109-7.81-2.109-12.142s0.664-8.359,1.995-12.084c1.329-3.723,3.173-6.991,5.529-9.804
		c2.354-2.811,5.167-5.017,8.436-6.612c3.267-1.596,6.84-2.394,10.716-2.394c4.407,0,8.379,1.064,11.913,3.191
		c3.534,2.129,6.288,4.902,8.265,8.322v-33.972h15.276v65.664c0,1.596,0.265,2.735,0.798,3.42c0.531,0.684,1.443,1.064,2.736,1.14
		v12.996c-2.662,0.531-4.828,0.798-6.498,0.798c-2.736,0-4.979-0.684-6.726-2.052c-1.75-1.368-2.736-3.153-2.964-5.358l-0.342-3.762
		c-2.205,3.801-5.187,6.669-8.949,8.607C364.729,690.861,360.796,691.83,356.692,691.83z M360.682,678.834
		c1.443,0,2.925-0.245,4.446-0.74c1.52-0.494,2.925-1.197,4.218-2.109c1.291-0.912,2.451-1.976,3.477-3.192
		c1.026-1.215,1.804-2.545,2.337-3.989v-14.25c-0.609-1.671-1.464-3.21-2.565-4.617c-1.103-1.405-2.357-2.622-3.762-3.648
		c-1.407-1.025-2.889-1.842-4.446-2.45c-1.559-0.607-3.098-0.912-4.617-0.912c-2.28,0-4.389,0.495-6.327,1.481
		c-1.938,0.989-3.591,2.337-4.959,4.047c-1.368,1.71-2.433,3.668-3.192,5.871c-0.761,2.205-1.14,4.485-1.14,6.84
		c0,2.509,0.417,4.827,1.254,6.954c0.835,2.129,1.976,3.99,3.42,5.586c1.443,1.597,3.172,2.851,5.187,3.763
		C356.026,678.379,358.249,678.834,360.682,678.834z"/>
	<path d="M409.131,690.69v-44.916h-7.866v-11.628h7.866v-3.648c0-7.447,1.785-13.338,5.358-17.67
		c3.571-4.332,8.437-6.498,14.591-6.498c4.863,0,9.766,1.18,14.707,3.534l-3.078,11.515c-1.141-0.607-2.49-1.121-4.047-1.539
		c-1.559-0.417-2.984-0.627-4.275-0.627c-5.32,0-7.98,3.572-7.98,10.716v4.218h14.592v11.628h-14.592v44.916H409.131z"/>
	<path d="M448.916,702.318c1.291,0.38,2.545,0.664,3.762,0.855c1.215,0.188,2.241,0.284,3.078,0.284c0.987,0,1.899-0.19,2.736-0.569
		c0.835-0.382,1.596-1.046,2.28-1.995c0.684-0.951,1.367-2.263,2.052-3.934c0.684-1.672,1.405-3.762,2.166-6.27l-23.599-59.736
		h15.732l16.188,46.513l14.364-46.513h14.364l-25.08,71.593c-1.444,4.179-3.915,7.599-7.41,10.26
		c-3.496,2.659-7.828,3.99-12.996,3.99c-1.216,0-2.451-0.097-3.705-0.285c-1.254-0.19-2.564-0.514-3.933-0.97V702.318z"/>
	<path d="M508.568,690.69v-12.816h9.79v12.816H508.568z"/>
	<path d="M546.481,691.58c-3.916,0-7.743-0.623-11.48-1.868c-3.738-1.246-6.942-3.026-9.612-5.341l4.45-7.476
		c2.848,2.018,5.621,3.546,8.321,4.583c2.699,1.039,5.385,1.558,8.055,1.558c2.372,0,4.241-0.444,5.606-1.335
		c1.364-0.89,2.048-2.165,2.048-3.827c0-1.66-0.802-2.877-2.403-3.648c-1.603-0.771-4.214-1.66-7.832-2.67
		c-3.026-0.83-5.607-1.632-7.743-2.403c-2.136-0.771-3.857-1.646-5.162-2.625c-1.306-0.979-2.256-2.105-2.848-3.383
		c-0.594-1.274-0.891-2.803-0.891-4.583c0-2.372,0.459-4.509,1.38-6.408c0.919-1.898,2.21-3.516,3.871-4.851s3.604-2.358,5.83-3.07
		c2.225-0.712,4.642-1.068,7.253-1.068c3.501,0,6.778,0.505,9.835,1.514c3.056,1.01,5.858,2.641,8.41,4.895l-4.806,7.209
		c-2.374-1.78-4.673-3.084-6.897-3.916c-2.225-0.83-4.437-1.246-6.631-1.246c-2.018,0-3.708,0.416-5.072,1.246
		c-1.366,0.832-2.048,2.167-2.048,4.005c0,0.832,0.163,1.514,0.49,2.047c0.325,0.534,0.845,1.01,1.558,1.425
		c0.712,0.415,1.646,0.816,2.803,1.201c1.157,0.387,2.596,0.787,4.316,1.201c3.204,0.832,5.948,1.662,8.233,2.492
		c2.283,0.832,4.152,1.78,5.606,2.848c1.453,1.068,2.521,2.301,3.204,3.694c0.682,1.395,1.023,3.07,1.023,5.028
		c0,4.569-1.691,8.174-5.073,10.813C556.895,690.261,552.296,691.58,546.481,691.58z"/>
	<path d="M601.038,691.58c-3.68,0-6.884-0.816-9.612-2.447c-2.729-1.631-4.865-3.841-6.407-6.631v27.146h-11.927v-65.593h10.413
		v8.01c1.721-2.729,3.945-4.88,6.675-6.452c2.729-1.572,5.874-2.358,9.435-2.358c3.144,0,6.052,0.638,8.722,1.913
		c2.67,1.276,4.969,2.997,6.897,5.162c1.928,2.166,3.44,4.717,4.539,7.654c1.098,2.937,1.646,6.038,1.646,9.3
		c0,3.382-0.505,6.557-1.513,9.523c-1.01,2.968-2.419,5.549-4.228,7.743c-1.811,2.195-3.961,3.916-6.452,5.162
		C606.734,690.957,604.004,691.58,601.038,691.58z M597.033,681.435c1.78,0,3.427-0.386,4.939-1.157
		c1.513-0.771,2.804-1.81,3.871-3.115c1.068-1.304,1.898-2.817,2.492-4.539c0.593-1.72,0.891-3.5,0.891-5.34
		c0-1.958-0.327-3.782-0.979-5.474c-0.653-1.69-1.558-3.159-2.715-4.405c-1.156-1.246-2.522-2.225-4.094-2.937
		c-1.572-0.712-3.279-1.068-5.117-1.068c-1.128,0-2.285,0.193-3.472,0.578c-1.188,0.387-2.284,0.935-3.293,1.646
		c-1.009,0.713-1.913,1.544-2.714,2.492c-0.801,0.95-1.41,1.989-1.824,3.115v10.947c1.067,2.67,2.699,4.881,4.895,6.63
		C592.107,680.56,594.481,681.435,597.033,681.435z"/>
	<path d="M642.244,691.58c-2.256,0-4.361-0.371-6.319-1.112s-3.648-1.78-5.073-3.115c-1.424-1.335-2.536-2.893-3.337-4.672
		c-0.801-1.78-1.202-3.738-1.202-5.874c0-2.194,0.49-4.228,1.469-6.097c0.979-1.869,2.344-3.456,4.094-4.762
		c1.75-1.305,3.841-2.328,6.274-3.07c2.433-0.741,5.103-1.112,8.011-1.112c2.076,0,4.107,0.178,6.097,0.534
		c1.986,0.355,3.751,0.86,5.295,1.513v-2.67c0-3.085-0.876-5.458-2.625-7.12c-1.751-1.66-4.348-2.492-7.788-2.492
		c-2.492,0-4.926,0.445-7.298,1.335c-2.374,0.891-4.806,2.196-7.298,3.916l-3.649-7.564c5.992-3.975,12.46-5.963,19.402-5.963
		c6.704,0,11.911,1.646,15.619,4.939s5.563,8.054,5.563,14.284v14.507c0,1.246,0.223,2.136,0.668,2.67s1.171,0.832,2.181,0.89
		v10.146c-2.019,0.414-3.769,0.623-5.251,0.623c-2.256,0-3.991-0.505-5.207-1.513c-1.217-1.009-1.973-2.344-2.27-4.005l-0.267-2.581
		c-2.078,2.729-4.599,4.806-7.565,6.229C648.799,690.868,645.626,691.58,642.244,691.58z M645.626,682.858
		c2.017,0,3.93-0.356,5.74-1.068c1.81-0.712,3.218-1.66,4.228-2.848c1.305-1.008,1.958-2.136,1.958-3.382v-5.34
		c-1.424-0.534-2.968-0.964-4.628-1.291c-1.662-0.325-3.264-0.489-4.806-0.489c-3.086,0-5.607,0.698-7.565,2.092
		c-1.958,1.395-2.937,3.159-2.937,5.295c0,2.019,0.771,3.693,2.313,5.028C641.472,682.191,643.37,682.858,645.626,682.858z"/>
	<path d="M677.665,667.372c0-3.262,0.563-6.348,1.69-9.256c1.127-2.906,2.76-5.458,4.896-7.653s4.717-3.945,7.743-5.251
		c3.025-1.305,6.437-1.958,10.234-1.958c5.103,0,9.448,1.098,13.039,3.293c3.589,2.195,6.274,5.072,8.055,8.633l-11.659,3.56
		c-1.01-1.72-2.345-3.04-4.005-3.96c-1.662-0.92-3.502-1.38-5.519-1.38c-1.722,0-3.323,0.342-4.806,1.023
		c-1.484,0.683-2.774,1.633-3.872,2.848c-1.099,1.217-1.958,2.686-2.58,4.406c-0.623,1.722-0.935,3.619-0.935,5.695
		c0,2.078,0.325,3.977,0.979,5.696c0.652,1.722,1.527,3.204,2.626,4.45c1.097,1.246,2.388,2.211,3.871,2.893
		c1.482,0.683,3.056,1.023,4.717,1.023c2.136,0,4.108-0.534,5.919-1.603c1.809-1.067,3.07-2.372,3.782-3.916l11.659,3.561
		c-1.603,3.56-4.243,6.468-7.921,8.722c-3.68,2.256-8.1,3.382-13.262,3.382c-3.797,0-7.209-0.653-10.234-1.958
		c-3.026-1.304-5.607-3.07-7.743-5.295c-2.136-2.226-3.782-4.807-4.939-7.743C678.243,673.646,677.665,670.576,677.665,667.372z"/>
	<path d="M751.979,691.58c-3.737,0-7.12-0.638-10.146-1.913c-3.026-1.275-5.607-3.011-7.743-5.207
		c-2.136-2.194-3.782-4.746-4.939-7.653c-1.157-2.906-1.735-5.963-1.735-9.167c0-3.322,0.563-6.453,1.69-9.39
		c1.127-2.938,2.76-5.519,4.896-7.743s4.73-3.989,7.787-5.295c3.056-1.305,6.482-1.958,10.279-1.958s7.194,0.653,10.191,1.958
		c2.995,1.306,5.547,3.056,7.653,5.251c2.105,2.195,3.708,4.747,4.807,7.653c1.097,2.908,1.646,5.934,1.646,9.078
		c0,0.771-0.016,1.513-0.045,2.225c-0.03,0.713-0.104,1.307-0.223,1.78h-36.045c0.178,1.84,0.623,3.472,1.335,4.896
		s1.632,2.641,2.759,3.648c1.127,1.01,2.403,1.78,3.827,2.314s2.906,0.801,4.45,0.801c2.372,0,4.612-0.578,6.72-1.735
		c2.105-1.157,3.545-2.684,4.316-4.584l10.235,2.849c-1.722,3.56-4.466,6.482-8.233,8.767
		C761.694,690.438,757.2,691.58,751.979,691.58z M764.084,663.456c-0.298-3.5-1.588-6.304-3.872-8.41
		c-2.284-2.105-5.059-3.159-8.321-3.159c-1.602,0-3.101,0.282-4.494,0.845c-1.395,0.565-2.626,1.351-3.693,2.359
		c-1.068,1.009-1.944,2.225-2.626,3.648c-0.683,1.424-1.083,2.997-1.201,4.717H764.084z"/>
</g>
<g id="rocket">
	<g id="lines">
		<path id="line_3" fill="#FFFFFF" d="M540.166,416.13c-6.253-5.984-15.323-6.4-20.307-1.145l-45.718,48.217
			c-5.07,5.348-4.021,14.439,2.123,20.324c6.147,5.883,15.323,6.402,20.306,1.146l45.72-48.217
			C547.467,431.21,546.421,422.118,540.166,416.13z"/>
		<path id="line_2" fill="#FFFFFF" d="M494.769,372.677c-3.127-2.994-6.982-4.572-10.692-4.781c0,0,0,0-0.194-0.012
			c-2.343-0.133-4.712,0.414-6.826,1.559c-1.002,0.623-2.004,1.246-2.879,2.168l-91.35,96.346c-0.699,0.736-1.291,1.574-1.775,2.52
			c-2.834,5.377-1.386,12.744,3.899,17.801c5.283,5.061,12.677,6.156,17.885,3.049c0.916-0.529,1.721-1.164,2.42-1.9l91.525-96.531
			c0.875-0.918,1.556-1.854,2.019-2.992C501.46,384.71,499.943,377.63,494.769,372.677z"/>
		<path id="line_1" fill="#FFFFFF" d="M449.369,329.22c-6.255-5.988-15.324-6.402-20.307-1.148l-45.719,48.219
			c-5.07,5.348-4.023,14.439,2.125,20.322c6.146,5.885,15.322,6.404,20.306,1.146l45.718-48.217
			C456.562,344.194,455.515,335.103,449.369,329.22z"/>
	</g>
	<path id="ship" fill="#FFFFFF" d="M818.845,46.933c-0.796-7.618-8.238-14.746-15.848-15.17
		c-125.359-7.082-236.332,43.57-304.476,132.584c-44.834-0.885-84.908,14.917-113.586,45.163
		c-28.931,30.519-42.876,72.563-39.166,118.329c0.881,11.215,18.66,23.484,27.544,9.133c4.648-7.514,8.8-15.143,14.489-21.139
		c14.161-14.937,32.905-24.079,54.085-26.668c0.909,2.288,2.305,4.501,4.255,6.365l127.786,122.313
		c1.94,1.854,4.208,3.152,6.522,3.963c-1.546,21.375-9.728,40.633-23.888,55.576c-5.681,5.99-13.196,10.227-20.311,15.557
		c-14.854,11.102,0.891,27.053,10.413,27.205c45.65,1.309,86.803-14.529,115.733-45.049c28.565-30.342,42.53-71.322,39.391-116.172
		C786.887,286.311,831.956,172.39,818.845,46.933z M791.282,59.947c2.577,37.638-0.703,74.07-8.866,108.291L684.17,74.203
		C717.769,64.146,753.747,59.184,791.282,59.947z M378.777,282.394c5.248-19.417,14.976-36.838,28.697-51.311
		c18.538-19.548,42.858-31.969,70.364-36.244c-0.6,0.848-25.294,50.539-30.121,64.739
		C421.654,259.954,397.924,267.836,378.777,282.394z M639.86,453.521c-13.721,14.482-30.675,24.982-49.624,31.291
		c13.438-20.02,20.13-44.221,19.343-70.295c19.288-7.75,62.268-32.91,62.896-33.363C669.653,408.876,658.482,433.888,639.86,453.521
		z M584.753,391.456L471.738,283.279c28.622-93.967,96.342-164.742,184.307-199.593l118.189,113.13
		C743.851,286.792,676.776,358.188,584.753,391.456z"/>
</g>
<g id="cloud">
	<path id="cloud_line" d="M741.021,267.278c-4.519,7.098-9.317,13.994-14.378,20.683c19.736,26.96,31.409,60.177,31.409,96.073
		c0,87.074-68.066,158.585-154.96,162.802l-1.05,0.051l-1.024,0.232c-0.548,0.124-1.458,0.272-2.684,0.272H192.023
		c-0.851,0-1.692-0.076-2.432-0.222l-0.952-0.187l-0.969-0.031c-74.853-2.403-133.487-62.983-133.487-137.917
		c0-76.094,61.907-138.001,138.001-138.001c10.189,0,20.373,1.123,30.268,3.336l11.66,2.608l2.659-11.648
		c19.623-85.943,94.991-145.967,183.282-145.967c44.666,0,87.186,15.975,120.525,43.794c5.446-5.913,11.115-11.605,17-17.063
		c-37.83-32.205-86.435-50.73-137.525-50.73c-48.302,0-95.561,16.677-133.072,46.96c-33.942,27.402-58.762,64.887-70.729,106.497
		c-7.954-1.187-16.011-1.786-24.068-1.786c-89.328,0-162.001,72.673-162.001,162.001c0,42.35,16.238,82.406,45.724,112.793
		c29.211,30.104,68.287,47.513,110.109,49.081c1.949,0.32,3.964,0.482,6.007,0.482h406.311c2.362,0,4.668-0.213,6.869-0.633
		c47.638-2.551,92.025-22.972,125.078-57.568c33.385-34.943,51.771-80.812,51.771-129.156
		C782.052,339.904,766.684,299.297,741.021,267.278z"/>
</g>
</svg>
