<?xml version="1.0" standalone="no"?>
<!DOCTYPE svg PUBLIC "-//W3C//DTD SVG 20010904//EN"
 "http://www.w3.org/TR/2001/REC-SVG-20010904/DTD/svg10.dtd">
<svg version="1.0" xmlns="http://www.w3.org/2000/svg"
 width="826.000000pt" height="826.000000pt" viewBox="0 0 826.000000 826.000000"
 preserveAspectRatio="xMidYMid meet">
<metadata>
Created by potrace 1.11, written by Peter Selinger 2001-2013
</metadata>
<g transform="translate(0.000000,826.000000) scale(0.100000,-0.100000)"
fill="#000000" stroke="none">
<path d="M7485 6874 c-229 -15 -524 -62 -740 -119 -534 -140 -990 -380 -1406
-742 l-107 -92 -98 55 c-311 171 -644 256 -1009 257 -476 1 -904 -141 -1284
-426 -325 -244 -589 -606 -722 -989 l-38 -112 -48 4 c-27 3 -127 5 -223 4
-197 -1 -307 -19 -486 -79 -347 -116 -669 -372 -864 -690 -234 -380 -299 -860
-175 -1290 172 -594 664 -1036 1279 -1148 l121 -22 2170 0 c2389 0 2243 -4
2487 60 204 53 437 161 607 283 112 79 287 244 373 351 399 494 519 1161 317
1764 -22 65 -60 159 -84 209 l-45 91 44 66 c405 616 609 1404 566 2185 -12
230 -18 264 -53 310 -48 63 -77 69 -312 71 -115 2 -237 1 -270 -1z m350 -409
c13 -224 -22 -625 -75 -863 -10 -46 -20 -85 -22 -87 -1 -1 -167 155 -368 348
-201 192 -421 403 -488 467 l-124 118 59 17 c250 73 587 121 869 124 l142 1 7
-125z m-788 -657 c308 -295 572 -547 588 -560 l27 -24 -57 -144 c-325 -821
-943 -1447 -1744 -1765 l-93 -37 -31 29 c-45 41 -972 926 -1042 994 l-59 58
23 73 c108 337 298 689 527 973 96 120 354 377 476 476 219 176 482 332 748
445 30 13 60 22 66 21 6 -1 263 -244 571 -539z m-2773 182 c149 -14 298 -45
425 -86 107 -35 364 -152 359 -164 -2 -3 -37 -47 -78 -98 -75 -91 -75 -92
-121 -92 -72 0 -246 -19 -329 -36 -469 -95 -864 -418 -1044 -856 -79 -191
-123 -445 -114 -656 5 -115 16 -148 65 -193 40 -38 66 -49 111 -49 54 0 81 24
142 126 124 205 300 333 537 392 103 26 105 26 116 7 17 -31 61 -74 716 -700
338 -323 625 -592 639 -598 23 -11 24 -14 18 -68 -17 -145 -85 -312 -178 -434
-38 -49 -88 -96 -168 -156 -119 -89 -150 -125 -150 -173 0 -41 38 -102 83
-133 49 -34 128 -41 290 -24 387 41 691 182 935 436 114 118 192 230 261 376
103 216 155 456 150 697 l-2 92 129 124 c72 68 163 162 204 210 40 47 76 86
80 86 3 0 23 -46 44 -102 218 -588 81 -1241 -353 -1691 -257 -266 -554 -423
-917 -484 -103 -17 -219 -18 -2269 -18 -2412 0 -2227 -5 -2452 70 -474 159
-809 539 -915 1039 -29 136 -30 378 -4 516 114 587 570 1025 1161 1117 137 21
351 12 503 -20 l112 -24 6 26 c4 14 17 69 30 122 183 742 794 1297 1544 1404
183 26 281 29 434 15z m416 -755 c0 -3 -26 -58 -59 -123 -66 -132 -215 -456
-225 -488 -8 -25 -32 -34 -97 -34 -154 0 -396 -82 -546 -183 -29 -20 -53 -32
-53 -27 0 23 63 179 100 247 128 238 361 445 606 539 115 45 274 84 274 69z
m1930 -1986 c-28 -135 -86 -282 -158 -399 -76 -124 -234 -287 -357 -366 -82
-53 -262 -140 -271 -131 -2 2 18 46 45 98 82 156 130 346 131 513 l1 81 157
77 c86 43 227 117 312 166 87 49 156 83 158 76 2 -6 -7 -58 -18 -115z"/>
<path d="M4248 3938 c-15 -7 -138 -130 -273 -272 -263 -279 -270 -288 -247
-364 29 -95 152 -153 222 -104 22 15 287 290 459 475 l53 58 -4 57 c-4 63 -29
107 -77 135 -39 23 -101 30 -133 15z"/>
<path d="M4634 3448 c-103 -103 -885 -931 -902 -956 -22 -33 -18 -105 8 -146
42 -69 138 -103 196 -69 38 22 941 971 967 1016 52 91 -40 217 -158 217 -44 0
-51 -4 -111 -62z"/>
<path d="M5150 3065 c-29 -15 -491 -499 -508 -532 -34 -64 7 -166 81 -202 51
-25 87 -27 125 -7 30 16 491 497 510 533 61 113 -96 269 -208 208z"/>
</g>
</svg>
